# xmcd CD database file
#
# Track frame offsets:
#	150
#	18542
#	41720
#	64718
#	100482
#	116556
#	138743
#	160119
#	174714
#	195268
#
# Disc length: 2857 seconds
#
# Revision: 2
# Processed by: cddbd v1.5.2PL0 Copyright (c) Steve Scherf et al.
# Submitted via: CDex 2.04
#
DISCID=890b270a
DTITLE=In Flames - Sounds from the Heart of Gothenburg CD2
DYEAR=2016
DGENRE=Melodic Death Metal
TTITLE0=Delight and Angers
TTITLE1=Cloud Connected
TTITLE2=Only for the Weak
TTITLE3=The Chosen Pessimist
TTITLE4=The Quiet Place
TTITLE5=When the World Explodes
TTITLE6=Rusted Nail
TTITLE7=The Mirror's Truth
TTITLE8=Deliver Us
TTITLE9=Take This Life
EXTD=YEAR: 2016
EXTT0=
EXTT1=
EXTT2=
EXTT3=
EXTT4=
EXTT5=
EXTT6=
EXTT7=
EXTT8=
EXTT9=
PLAYORDER=
